<?xml version="1.0" encoding="UTF-8" standalone="no"?>
<svg
   width="22"
   height="22"
   version="1.1"
   id="svg23"
   sodipodi:docname="close.svg"
   inkscape:version="1.3 (0e150ed6c4, 2023-07-21)"
   xmlns:inkscape="http://www.inkscape.org/namespaces/inkscape"
   xmlns:sodipodi="http://sodipodi.sourceforge.net/DTD/sodipodi-0.dtd"
   xmlns:xlink="http://www.w3.org/1999/xlink"
   xmlns="http://www.w3.org/2000/svg"
   xmlns:svg="http://www.w3.org/2000/svg">
  <sodipodi:namedview
     id="namedview23"
     pagecolor="#ffffff"
     bordercolor="#999999"
     borderopacity="1"
     inkscape:showpageshadow="false"
     inkscape:pageopacity="0"
     inkscape:pagecheckerboard="true"
     inkscape:deskcolor="#d1d1d1"
     inkscape:zoom="8.0000005"
     inkscape:cx="29.562498"
     inkscape:cy="7.8749995"
     inkscape:window-width="1920"
     inkscape:window-height="1016"
     inkscape:window-x="0"
     inkscape:window-y="32"
     inkscape:window-maximized="1"
     inkscape:current-layer="layer1"
     showguides="true"
     showborder="true"
     labelstyle="default"
     shape-rendering="auto" />
  <defs
     id="defs2">
    <linearGradient
       id="linearGradient7"
       inkscape:collect="always">
      <stop
         style="stop-color:#ffffff;stop-opacity:1;"
         offset="0"
         id="stop6" />
      <stop
         style="stop-color:#ffffff;stop-opacity:0;"
         offset="1"
         id="stop7" />
    </linearGradient>
    <linearGradient
       id="linearGradient4"
       inkscape:collect="always">
      <stop
         style="stop-color:#f8f8f8;stop-opacity:1;"
         offset="0"
         id="stop4" />
      <stop
         style="stop-color:#000000;stop-opacity:0;"
         offset="1"
         id="stop5" />
    </linearGradient>
    <linearGradient
       id="linearGradient23">
      <stop
         style="stop-color:#ffffff;stop-opacity:1;"
         offset="0"
         id="stop23" />
      <stop
         style="stop-color:#5b5b5b;stop-opacity:0;"
         offset="1"
         id="stop22" />
    </linearGradient>
    <linearGradient
       id="linearGradient21">
      <stop
         style="stop-color:#4381c1;stop-opacity:1"
         offset="0"
         id="stop20" />
      <stop
         style="stop-color:#fafbfb;stop-opacity:1;"
         offset="1"
         id="stop21" />
    </linearGradient>
    <linearGradient
       id="linearGradient832">
      <stop
         style="stop-color:#4381c1;stop-opacity:1"
         offset="0"
         id="stop1" />
      <stop
         style="stop-color:#5fa0e4;stop-opacity:1"
         offset="1"
         id="stop2" />
    </linearGradient>
    <linearGradient
       id="linearGradient1094"
       x1="55"
       x2="55"
       y1="7"
       y2="16"
       gradientUnits="userSpaceOnUse"
       xlink:href="#linearGradient832" />
    <linearGradient
       id="linearGradient3828-3">
      <stop
         style="stop-color:#575757;stop-opacity:1;"
         offset="0"
         id="stop3830-7" />
      <stop
         style="stop-color:#707070;stop-opacity:1;"
         offset="1"
         id="stop3832-7" />
    </linearGradient>
    <linearGradient
       id="linearGradient3816-1-9-2">
      <stop
         style="stop-color:#5f5f5f;stop-opacity:1;"
         offset="0"
         id="stop3818-3-2-6" />
      <stop
         id="stop3824-4-8-5"
         offset="0.81999999"
         style="stop-color:#717171;stop-opacity:1;" />
      <stop
         style="stop-color:#a3a3a3;stop-opacity:1;"
         offset="0.93000001"
         id="stop3838-4-2-9" />
      <stop
         style="stop-color:#a3a3a3;stop-opacity:1;"
         offset="1"
         id="stop3820-2-0-2" />
    </linearGradient>
    <linearGradient
       id="linearGradient3828-6-41-7">
      <stop
         style="stop-color:#303030;stop-opacity:1;"
         offset="0"
         id="stop3830-4-0-8" />
      <stop
         style="stop-color:#707070;stop-opacity:1;"
         offset="1"
         id="stop3832-9-0-4" />
    </linearGradient>
    <radialGradient
       inkscape:collect="always"
       xlink:href="#linearGradient4"
       id="radialGradient5"
       cx="-16"
       cy="17.703746"
       fx="-16"
       fy="17.703746"
       r="11"
       gradientUnits="userSpaceOnUse" />
    <radialGradient
       inkscape:collect="always"
       xlink:href="#linearGradient7"
       id="radialGradient5-7"
       cx="-16"
       cy="17.703747"
       fx="-16"
       fy="17.703747"
       r="11"
       gradientUnits="userSpaceOnUse"
       gradientTransform="translate(71,-6.7037459)" />
  </defs>
  <g
     inkscape:groupmode="layer"
     id="layer1"
     inkscape:label="Layer 1">
    <rect
       y="0"
       x="-39.015621"
       height="4.375"
       width="5"
       id="hint-stretch-borders"
       style="fill:#008000;fill-opacity:1;stroke:none;stroke-width:0;stroke-miterlimit:4;stroke-dasharray:none;stroke-opacity:1" />
    <g
       id="deactivated-active-center"
       transform="translate(-38.411485,-0.50000377)"
       inkscape:label="#deactivated-active-center">
      <path
         style="color:#000000;display:inline;opacity:0.3;fill:#000000;fill-rule:evenodd;stroke-width:0.67383;stroke-linecap:square;stroke-dasharray:none;paint-order:markers stroke fill"
         d="m 19.284728,3.3732475 c -3.83099,3.8309901 -3.83099,12.4225245 0,16.2535145 3.83099,3.83099 12.422524,3.83099 16.253514,0 3.83099,-3.83099 3.83099,-12.4225244 0,-16.2535145 -3.83099,-3.83099011 -12.422524,-3.83099011 -16.253514,0 z"
         id="path3"
         sodipodi:nodetypes="ccccc" />
      <path
         style="font-size:21.3333px;font-family:'Fifaks 1.0 dev1';-inkscape-font-specification:'Fifaks 1.0 dev1';text-align:center;text-anchor:middle;display:inline;fill:#808080;fill-rule:evenodd;stroke:none;stroke-width:1.83736;stroke-linecap:square;paint-order:markers stroke fill"
         d="m 27.411485,13.809706 c -2.177602,0 -2.441789,4.619392 -4.619392,4.619391 -1.088803,1e-6 -2.309701,-1.220897 -2.309701,-2.309701 0,-2.177602 4.619392,-2.441789 4.619392,-4.619391 0,-2.1776024 -4.619394,-2.4417913 -4.619394,-4.6193932 0,-1.0888031 1.220897,-2.3097008 2.309702,-2.3097008 2.177601,0 2.441791,4.6193926 4.619393,4.6193926 2.177602,10e-8 2.441789,-4.6193911 4.619391,-4.6193911 1.088804,2e-7 2.309701,1.2208979 2.309701,2.309701 0,2.1776019 -4.619391,2.44179 -4.619391,4.6193915 0,2.177603 4.619394,2.441789 4.619394,4.619393 -2e-6,1.088803 -1.2209,2.309702 -2.309702,2.309702 -2.177603,-2e-6 -2.44179,-4.619394 -4.619393,-4.619394 z"
         id="path5-9"
         aria-label="[+]"
         sodipodi:nodetypes="sssssssssssss"
         inkscape:label="[]" />
    </g>
    <g
       id="active-center"
       inkscape:label="#active-center">
      <path
         style="color:#000000;display:inline;opacity:0.3;fill:none;fill-rule:evenodd;stroke-width:0.67383;stroke-linecap:square;stroke-dasharray:none;paint-order:markers stroke fill;stroke:none"
         d="m 2.873243,2.8732424 c -3.83099,3.830991 -3.83099,12.4225246 0,16.2535146 3.83099,3.83099 12.422524,3.83099 16.253514,0 3.83099,-3.83099 3.83099,-12.4225236 0,-16.2535136 -3.83099,-3.83099096 -12.422524,-3.83099096 -16.253514,-10e-7 z"
         id="path3-6"
         sodipodi:nodetypes="ccccc" />
      <path
         style="font-size:21.3333px;font-family:'Fifaks 1.0 dev1';-inkscape-font-specification:'Fifaks 1.0 dev1';text-align:center;text-anchor:middle;display:inline;fill:#ffffff;fill-rule:evenodd;stroke:none;stroke-width:1.83736;stroke-linecap:square;paint-order:markers stroke fill"
         d="m 11,13.309702 c -2.1776026,0 -2.4417897,4.619392 -4.6193917,4.619392 -1.0888039,0 -2.3097015,-1.220898 -2.3097018,-2.309701 4e-7,-2.177603 4.6193919,-2.44179 4.6193921,-4.619392 0,-2.1776021 -4.6193929,-2.4417907 -4.6193925,-4.619393 -8e-7,-1.088803 1.2208968,-2.3097007 2.3097007,-2.3097007 2.1776019,0 2.4417909,4.6193925 4.6193922,4.6193925 2.177603,0 2.441789,-4.619391 4.619391,-4.619391 1.088804,0 2.309702,1.2208977 2.309702,2.3097016 0,2.1776018 -4.619391,2.4417893 -4.619391,4.6193906 -1e-6,2.177603 4.619394,2.441789 4.619394,4.619393 0,1.088805 -1.220899,2.309703 -2.309702,2.309702 C 13.44179,17.929094 13.177602,13.309702 11,13.309702 Z"
         id="path5-9-9"
         aria-label="[+]"
         sodipodi:nodetypes="sssssssssssss"
         inkscape:label="[]" />
    </g>
    <g
       id="hover-center"
       style="display:inline"
       transform="translate(49,-6.703746)"
       inkscape:label="#hover-center">
      <path
         style="color:#000000;display:inline;opacity:0.3;fill:url(#radialGradient5);fill-rule:evenodd;stroke-width:0.67383;stroke-linecap:square;stroke-dasharray:none;paint-order:markers stroke fill;fill-opacity:1"
         d="m -24.126757,9.5769883 c -3.83099,3.8309907 -3.83099,12.4225247 0,16.2535147 3.83099,3.83099 12.422524,3.83099 16.253514,0 3.83099,-3.83099 3.83099,-12.422524 0,-16.2535137 -3.83099,-3.8309906 -12.422524,-3.8309906 -16.253514,-10e-7 z"
         id="path3-6-1"
         sodipodi:nodetypes="ccccc" />
      <path
         style="font-size:21.3333px;font-family:'Fifaks 1.0 dev1';-inkscape-font-specification:'Fifaks 1.0 dev1';text-align:center;text-anchor:middle;display:inline;fill:#ffffff;fill-rule:evenodd;stroke:none;stroke-width:1.83736;stroke-linecap:square;paint-order:markers stroke fill"
         d="m -16,20.013448 c -2.177602,0 -2.44179,4.619392 -4.619392,4.619392 -1.088803,0 -2.309701,-1.220898 -2.309701,-2.309702 0,-2.177602 4.619391,-2.441789 4.619391,-4.619391 0,-2.177602 -4.619393,-2.441792 -4.619393,-4.619393 0,-1.088803 1.220897,-2.3097 2.309702,-2.309702 2.177601,0 2.44179,4.619394 4.619392,4.619394 2.177601,0 2.441789,-4.619391 4.619391,-4.619391 1.088804,0 2.3097019,1.220898 2.3097019,2.309702 0,2.177602 -4.6193909,2.441788 -4.6193909,4.61939 0,2.177602 4.6193926,2.441792 4.6193926,4.619393 0,1.088805 -1.2208976,2.309702 -2.3097016,2.309702 -2.177602,0 -2.44179,-4.619394 -4.619392,-4.619394 z"
         id="path5-9-9-2"
         aria-label="[+]"
         sodipodi:nodetypes="sssssssssssss"
         inkscape:label="[]" />
    </g>
    <g
       id="pressed-center"
       style="display:inline"
       inkscape:label="#pressed-center">
      <path
         style="color:#000000;display:inline;opacity:0.3;fill:url(#radialGradient5-7);fill-opacity:1;fill-rule:evenodd;stroke-width:0.67383;stroke-linecap:square;stroke-dasharray:none;paint-order:markers stroke fill"
         d="m 46.873243,2.8732424 c -3.83099,3.8309909 -3.83099,12.4225246 0,16.2535146 3.83099,3.83099 12.422524,3.83099 16.253514,0 3.83099,-3.83099 3.83099,-12.4225237 0,-16.2535136 -3.83099,-3.83099061 -12.422524,-3.83099061 -16.253514,-10e-7 z"
         id="path3-6-1-3"
         sodipodi:nodetypes="ccccc" />
      <path
         style="font-size:21.3333px;font-family:'Fifaks 1.0 dev1';-inkscape-font-specification:'Fifaks 1.0 dev1';text-align:center;text-anchor:middle;display:inline;fill:#ffffff;fill-rule:evenodd;stroke:none;stroke-width:1.83736;stroke-linecap:square;paint-order:markers stroke fill"
         d="m 55,13.309702 c -2.177601,0 -2.441789,4.619392 -4.619392,4.619392 -1.088803,0 -2.309701,-1.220898 -2.309701,-2.309701 0,-2.177602 4.619392,-2.44179 4.619392,-4.619392 0,-2.1776027 -4.619394,-2.4417909 -4.619394,-4.6193928 0,-1.0888039 1.220897,-2.3097008 2.309702,-2.3097008 2.177601,0 2.441791,4.6193925 4.619393,4.6193925 2.177601,0 2.441788,-4.619391 4.619391,-4.619391 1.088803,-1e-7 2.309701,1.2208976 2.309701,2.3097015 0,2.177602 -4.619391,2.4417893 -4.619391,4.6193916 0,2.177602 4.619392,2.441791 4.619392,4.619392 0,1.088805 -1.220896,2.309702 -2.3097,2.309702 -2.177601,0 -2.44179,-4.619394 -4.619393,-4.619394 z"
         id="path5-9-9-2-6"
         aria-label="[+]"
         sodipodi:nodetypes="sssssssssssss"
         inkscape:label="[]" />
    </g>
  </g>
</svg>
