<?xml version="1.0" encoding="UTF-8" standalone="no"?>
<svg
   width="22"
   height="22"
   version="1.1"
   id="svg23"
   sodipodi:docname="keepabove.svg"
   inkscape:version="1.3 (0e150ed6c4, 2023-07-21)"
   xmlns:inkscape="http://www.inkscape.org/namespaces/inkscape"
   xmlns:sodipodi="http://sodipodi.sourceforge.net/DTD/sodipodi-0.dtd"
   xmlns:xlink="http://www.w3.org/1999/xlink"
   xmlns="http://www.w3.org/2000/svg"
   xmlns:svg="http://www.w3.org/2000/svg">
  <sodipodi:namedview
     id="namedview23"
     pagecolor="#ffffff"
     bordercolor="#999999"
     borderopacity="1"
     inkscape:showpageshadow="false"
     inkscape:pageopacity="0"
     inkscape:pagecheckerboard="true"
     inkscape:deskcolor="#d1d1d1"
     inkscape:zoom="4.0000003"
     inkscape:cx="3.4999998"
     inkscape:cy="20.999999"
     inkscape:window-width="1920"
     inkscape:window-height="1016"
     inkscape:window-x="0"
     inkscape:window-y="32"
     inkscape:window-maximized="1"
     inkscape:current-layer="layer1"
     showguides="true"
     showborder="true"
     labelstyle="default"
     shape-rendering="auto" />
  <defs
     id="defs2">
    <linearGradient
       id="linearGradient7"
       inkscape:collect="always">
      <stop
         style="stop-color:#ffffff;stop-opacity:1;"
         offset="0"
         id="stop6" />
      <stop
         style="stop-color:#ffffff;stop-opacity:0;"
         offset="1"
         id="stop7" />
    </linearGradient>
    <linearGradient
       id="linearGradient4"
       inkscape:collect="always">
      <stop
         style="stop-color:#f8f8f8;stop-opacity:1;"
         offset="0"
         id="stop4" />
      <stop
         style="stop-color:#000000;stop-opacity:0;"
         offset="1"
         id="stop5" />
    </linearGradient>
    <linearGradient
       id="linearGradient23">
      <stop
         style="stop-color:#ffffff;stop-opacity:1;"
         offset="0"
         id="stop23" />
      <stop
         style="stop-color:#5b5b5b;stop-opacity:0;"
         offset="1"
         id="stop22" />
    </linearGradient>
    <linearGradient
       id="linearGradient21">
      <stop
         style="stop-color:#4381c1;stop-opacity:1"
         offset="0"
         id="stop20" />
      <stop
         style="stop-color:#fafbfb;stop-opacity:1;"
         offset="1"
         id="stop21" />
    </linearGradient>
    <linearGradient
       id="linearGradient832">
      <stop
         style="stop-color:#4381c1;stop-opacity:1"
         offset="0"
         id="stop1" />
      <stop
         style="stop-color:#5fa0e4;stop-opacity:1"
         offset="1"
         id="stop2" />
    </linearGradient>
    <linearGradient
       id="linearGradient1094"
       x1="55"
       x2="55"
       y1="7"
       y2="16"
       gradientUnits="userSpaceOnUse"
       xlink:href="#linearGradient832" />
    <linearGradient
       id="linearGradient3828-3">
      <stop
         style="stop-color:#575757;stop-opacity:1;"
         offset="0"
         id="stop3830-7" />
      <stop
         style="stop-color:#707070;stop-opacity:1;"
         offset="1"
         id="stop3832-7" />
    </linearGradient>
    <linearGradient
       id="linearGradient3816-1-9-2">
      <stop
         style="stop-color:#5f5f5f;stop-opacity:1;"
         offset="0"
         id="stop3818-3-2-6" />
      <stop
         id="stop3824-4-8-5"
         offset="0.81999999"
         style="stop-color:#717171;stop-opacity:1;" />
      <stop
         style="stop-color:#a3a3a3;stop-opacity:1;"
         offset="0.93000001"
         id="stop3838-4-2-9" />
      <stop
         style="stop-color:#a3a3a3;stop-opacity:1;"
         offset="1"
         id="stop3820-2-0-2" />
    </linearGradient>
    <linearGradient
       id="linearGradient3828-6-41-7">
      <stop
         style="stop-color:#303030;stop-opacity:1;"
         offset="0"
         id="stop3830-4-0-8" />
      <stop
         style="stop-color:#707070;stop-opacity:1;"
         offset="1"
         id="stop3832-9-0-4" />
    </linearGradient>
    <radialGradient
       inkscape:collect="always"
       xlink:href="#linearGradient4"
       id="radialGradient5"
       cx="-16"
       cy="17.703746"
       fx="-16"
       fy="17.703746"
       r="11"
       gradientUnits="userSpaceOnUse" />
    <radialGradient
       inkscape:collect="always"
       xlink:href="#linearGradient7"
       id="radialGradient5-7"
       cx="-16"
       cy="17.703747"
       fx="-16"
       fy="17.703747"
       r="11"
       gradientUnits="userSpaceOnUse"
       gradientTransform="translate(71,-6.7037459)" />
  </defs>
  <g
     inkscape:groupmode="layer"
     id="layer1"
     inkscape:label="Layer 1">
    <rect
       y="0"
       x="-39.015621"
       height="4.375"
       width="5"
       id="hint-stretch-borders"
       style="fill:#008000;fill-opacity:1;stroke:none;stroke-width:0;stroke-miterlimit:4;stroke-dasharray:none;stroke-opacity:1" />
    <g
       id="deactivated-active-center"
       transform="translate(-38.411485,-0.50000377)"
       inkscape:label="#deactivated-active-center">
      <path
         style="color:#000000;display:inline;opacity:0.3;fill:#000000;fill-rule:evenodd;stroke-width:0.67383;stroke-linecap:square;stroke-dasharray:none;paint-order:markers stroke fill"
         d="m 19.285407,3.3732475 c -3.83099,3.8309901 -3.83099,12.4225245 0,16.2535145 3.83099,3.83099 12.422524,3.83099 16.253514,0 3.83099,-3.83099 3.83099,-12.4225244 0,-16.2535145 -3.83099,-3.83099011 -12.422524,-3.83099011 -16.253514,0 z"
         id="path3"
         sodipodi:nodetypes="ccccc" />
      <path
         id="path5-9"
         style="font-size:21.3333px;font-family:'Fifaks 1.0 dev1';-inkscape-font-specification:'Fifaks 1.0 dev1';text-align:center;text-anchor:middle;display:inline;fill:#808080;fill-rule:evenodd;stroke:none;stroke-width:1.70126;stroke-linecap:square;paint-order:markers stroke fill"
         inkscape:label="[]"
         d="m 26.155625,5.6291627 c -1.164606,0.3624164 -1.996455,1.253933 -2.492187,2.3652346 l -0.542969,2.7187497 c 0.0019,0.221983 0.01203,0.442868 0.03516,0.662109 h 3.085938 c 0.456067,1.584256 -1.595614,4.207121 -0.341797,5.460938 0.71287,0.71287 2.310567,0.71287 3.023438,0 1.253817,-1.253817 -0.797864,-3.876682 -0.341797,-5.460938 h 3.107422 c 0.01327,-0.221052 0.01752,-0.441628 0.01367,-0.662109 L 31.145858,7.9983033 C 30.658891,6.8934835 29.843332,6.020583 28.661485,5.648694 Z"
         sodipodi:nodetypes="cccccsscccccc" />
    </g>
    <g
       id="active-center"
       inkscape:label="#active-center">
      <path
         style="color:#000000;display:inline;opacity:0.3;fill:none;fill-rule:evenodd;stroke-width:0.67383;stroke-linecap:square;stroke-dasharray:none;paint-order:markers stroke fill;stroke:none"
         d="m 2.873243,2.8732424 c -3.83099,3.830991 -3.83099,12.4225246 0,16.2535146 3.83099,3.83099 12.422524,3.83099 16.253514,0 3.83099,-3.83099 3.83099,-12.4225236 0,-16.2535136 -3.83099,-3.83099096 -12.422524,-3.83099096 -16.253514,-10e-7 z"
         id="path3-6"
         sodipodi:nodetypes="ccccc" />
      <path
         id="path5-9-0"
         style="font-size:21.3333px;font-family:'Fifaks 1.0 dev1';-inkscape-font-specification:'Fifaks 1.0 dev1';text-align:center;text-anchor:middle;display:inline;fill:#ffffff;fill-rule:evenodd;stroke:none;stroke-width:1.70126;stroke-linecap:square;paint-order:markers stroke fill"
         inkscape:label="[]"
         d="m 9.7434585,5.1291596 c -1.164606,0.3624164 -1.996455,1.253933 -2.492187,2.3652346 l -0.542969,2.7187498 c 0.0019,0.221983 0.01203,0.442868 0.03516,0.662109 h 3.085938 c 0.4560665,1.584256 -1.595614,4.207121 -0.341797,5.460938 0.7128695,0.71287 2.3105665,0.71287 3.0234375,0 1.253817,-1.253817 -0.797864,-3.876682 -0.341797,-5.460938 h 3.107422 c 0.01327,-0.221052 0.01752,-0.441628 0.01367,-0.662109 L 14.733691,7.4983002 C 14.246724,6.3934804 13.431165,5.5205799 12.249318,5.1486909 Z"
         sodipodi:nodetypes="cccccsscccccc" />
    </g>
    <g
       id="hover-center"
       style="display:inline"
       transform="translate(49,-6.703746)"
       inkscape:label="#hover-center">
      <path
         style="color:#000000;display:inline;opacity:0.3;fill:url(#radialGradient5);fill-rule:evenodd;stroke-width:0.67383;stroke-linecap:square;stroke-dasharray:none;paint-order:markers stroke fill;fill-opacity:1"
         d="m -24.126757,9.5769883 c -3.83099,3.8309907 -3.83099,12.4225247 0,16.2535147 3.83099,3.83099 12.422524,3.83099 16.253514,0 3.83099,-3.83099 3.83099,-12.422524 0,-16.2535137 -3.83099,-3.8309906 -12.422524,-3.8309906 -16.253514,-10e-7 z"
         id="path3-6-1"
         sodipodi:nodetypes="ccccc" />
      <path
         id="path5-9-0-6"
         style="font-size:21.3333px;font-family:'Fifaks 1.0 dev1';-inkscape-font-specification:'Fifaks 1.0 dev1';text-align:center;text-anchor:middle;display:inline;fill:#ffffff;fill-rule:evenodd;stroke:none;stroke-width:1.70126;stroke-linecap:square;paint-order:markers stroke fill"
         inkscape:label="[]"
         d="m -17.256541,11.832906 c -1.164605,0.362416 -1.996455,1.253933 -2.492186,2.365234 l -0.54297,2.71875 c 0.0019,0.221983 0.01203,0.442868 0.03516,0.662109 h 3.085937 c 0.456067,1.584256 -1.595613,4.207121 -0.341797,5.460938 0.71287,0.71287 2.310567,0.71287 3.023438,0 1.253817,-1.253817 -0.797864,-3.876682 -0.341797,-5.460938 h 3.107422 c 0.01327,-0.221052 0.01752,-0.441628 0.01367,-0.662109 l -0.556645,-2.714844 c -0.486967,-1.104819 -1.302526,-1.97772 -2.484373,-2.349609 z"
         sodipodi:nodetypes="cccccsscccccc" />
    </g>
    <g
       id="pressed-center"
       style="display:inline"
       inkscape:label="#pressed-center">
      <path
         style="color:#000000;display:inline;opacity:0.3;fill:url(#radialGradient5-7);fill-opacity:1;fill-rule:evenodd;stroke-width:0.67383;stroke-linecap:square;stroke-dasharray:none;paint-order:markers stroke fill"
         d="m 46.873243,2.8732424 c -3.83099,3.8309909 -3.83099,12.4225246 0,16.2535146 3.83099,3.83099 12.422524,3.83099 16.253514,0 3.83099,-3.83099 3.83099,-12.4225237 0,-16.2535136 -3.83099,-3.83099061 -12.422524,-3.83099061 -16.253514,-10e-7 z"
         id="path3-6-1-3"
         sodipodi:nodetypes="ccccc" />
      <path
         id="path5-9-0-6-2"
         style="font-size:21.3333px;font-family:'Fifaks 1.0 dev1';-inkscape-font-specification:'Fifaks 1.0 dev1';text-align:center;text-anchor:middle;display:inline;fill:#ffffff;fill-rule:evenodd;stroke:none;stroke-width:1.70126;stroke-linecap:square;paint-order:markers stroke fill"
         inkscape:label="[]"
         d="m 53.743459,5.1291598 c -1.164605,0.362416 -1.996455,1.253933 -2.492186,2.365234 l -0.54297,2.7187502 c 0.0019,0.221983 0.01203,0.442868 0.03516,0.662109 H 53.8294 c 0.456067,1.584256 -1.595613,4.207121 -0.341797,5.460938 0.71287,0.71287 2.310567,0.71287 3.023438,0 1.253817,-1.253817 -0.797864,-3.876682 -0.341797,-5.460938 h 3.107422 c 0.01327,-0.221052 0.01752,-0.441628 0.01367,-0.662109 L 58.733691,7.4982998 c -0.486967,-1.104819 -1.302526,-1.97772 -2.484373,-2.349609 z"
         sodipodi:nodetypes="cccccsscccccc" />
    </g>
  </g>
</svg>
