<?xml version="1.0" encoding="UTF-8" standalone="no"?>
<svg
   width="22"
   height="22"
   version="1.1"
   id="svg23"
   sodipodi:docname="maximize.svg"
   inkscape:version="1.3 (0e150ed6c4, 2023-07-21)"
   xmlns:inkscape="http://www.inkscape.org/namespaces/inkscape"
   xmlns:sodipodi="http://sodipodi.sourceforge.net/DTD/sodipodi-0.dtd"
   xmlns:xlink="http://www.w3.org/1999/xlink"
   xmlns="http://www.w3.org/2000/svg"
   xmlns:svg="http://www.w3.org/2000/svg">
  <sodipodi:namedview
     id="namedview23"
     pagecolor="#ffffff"
     bordercolor="#999999"
     borderopacity="1"
     inkscape:showpageshadow="false"
     inkscape:pageopacity="0"
     inkscape:pagecheckerboard="true"
     inkscape:deskcolor="#d1d1d1"
     inkscape:zoom="16.000001"
     inkscape:cx="45.781247"
     inkscape:cy="9.9999994"
     inkscape:window-width="1920"
     inkscape:window-height="1016"
     inkscape:window-x="0"
     inkscape:window-y="32"
     inkscape:window-maximized="1"
     inkscape:current-layer="layer1"
     showguides="true"
     showborder="true"
     labelstyle="default"
     shape-rendering="auto" />
  <defs
     id="defs2">
    <linearGradient
       id="linearGradient7"
       inkscape:collect="always">
      <stop
         style="stop-color:#ffffff;stop-opacity:1;"
         offset="0"
         id="stop6" />
      <stop
         style="stop-color:#ffffff;stop-opacity:0;"
         offset="1"
         id="stop7" />
    </linearGradient>
    <linearGradient
       id="linearGradient4"
       inkscape:collect="always">
      <stop
         style="stop-color:#f8f8f8;stop-opacity:1;"
         offset="0"
         id="stop4" />
      <stop
         style="stop-color:#000000;stop-opacity:0;"
         offset="1"
         id="stop5" />
    </linearGradient>
    <linearGradient
       id="linearGradient23">
      <stop
         style="stop-color:#ffffff;stop-opacity:1;"
         offset="0"
         id="stop23" />
      <stop
         style="stop-color:#5b5b5b;stop-opacity:0;"
         offset="1"
         id="stop22" />
    </linearGradient>
    <linearGradient
       id="linearGradient21">
      <stop
         style="stop-color:#4381c1;stop-opacity:1"
         offset="0"
         id="stop20" />
      <stop
         style="stop-color:#fafbfb;stop-opacity:1;"
         offset="1"
         id="stop21" />
    </linearGradient>
    <linearGradient
       id="linearGradient832">
      <stop
         style="stop-color:#4381c1;stop-opacity:1"
         offset="0"
         id="stop1" />
      <stop
         style="stop-color:#5fa0e4;stop-opacity:1"
         offset="1"
         id="stop2" />
    </linearGradient>
    <linearGradient
       id="linearGradient1094"
       x1="55"
       x2="55"
       y1="7"
       y2="16"
       gradientUnits="userSpaceOnUse"
       xlink:href="#linearGradient832" />
    <linearGradient
       id="linearGradient3828-3">
      <stop
         style="stop-color:#575757;stop-opacity:1;"
         offset="0"
         id="stop3830-7" />
      <stop
         style="stop-color:#707070;stop-opacity:1;"
         offset="1"
         id="stop3832-7" />
    </linearGradient>
    <linearGradient
       id="linearGradient3816-1-9-2">
      <stop
         style="stop-color:#5f5f5f;stop-opacity:1;"
         offset="0"
         id="stop3818-3-2-6" />
      <stop
         id="stop3824-4-8-5"
         offset="0.81999999"
         style="stop-color:#717171;stop-opacity:1;" />
      <stop
         style="stop-color:#a3a3a3;stop-opacity:1;"
         offset="0.93000001"
         id="stop3838-4-2-9" />
      <stop
         style="stop-color:#a3a3a3;stop-opacity:1;"
         offset="1"
         id="stop3820-2-0-2" />
    </linearGradient>
    <linearGradient
       id="linearGradient3828-6-41-7">
      <stop
         style="stop-color:#303030;stop-opacity:1;"
         offset="0"
         id="stop3830-4-0-8" />
      <stop
         style="stop-color:#707070;stop-opacity:1;"
         offset="1"
         id="stop3832-9-0-4" />
    </linearGradient>
    <radialGradient
       inkscape:collect="always"
       xlink:href="#linearGradient4"
       id="radialGradient5"
       cx="-16"
       cy="17.703746"
       fx="-16"
       fy="17.703746"
       r="11"
       gradientUnits="userSpaceOnUse" />
    <radialGradient
       inkscape:collect="always"
       xlink:href="#linearGradient7"
       id="radialGradient5-7"
       cx="-16"
       cy="17.703747"
       fx="-16"
       fy="17.703747"
       r="11"
       gradientUnits="userSpaceOnUse"
       gradientTransform="translate(71,-6.7037459)" />
  </defs>
  <g
     inkscape:groupmode="layer"
     id="layer1"
     inkscape:label="Layer 1">
    <rect
       y="0"
       x="-39.015621"
       height="4.375"
       width="5"
       id="hint-stretch-borders"
       style="fill:#008000;fill-opacity:1;stroke:none;stroke-width:0;stroke-miterlimit:4;stroke-dasharray:none;stroke-opacity:1" />
    <g
       id="deactivated-active-center"
       transform="translate(-38.411485,-0.50000377)"
       inkscape:label="#deactivated-active-center">
      <path
         style="color:#000000;display:inline;opacity:0.3;fill:#000000;fill-rule:evenodd;stroke-width:0.67383;stroke-linecap:square;stroke-dasharray:none;paint-order:markers stroke fill"
         d="m 19.284728,3.3732475 c -3.83099,3.8309901 -3.83099,12.4225245 0,16.2535145 3.83099,3.83099 12.422524,3.83099 16.253514,0 3.83099,-3.83099 3.83099,-12.4225244 0,-16.2535145 -3.83099,-3.83099011 -12.422524,-3.83099011 -16.253514,0 z"
         id="path3"
         sodipodi:nodetypes="ccccc" />
      <path
         style="font-size:21.3333px;font-family:'Fifaks 1.0 dev1';-inkscape-font-specification:'Fifaks 1.0 dev1';text-align:center;text-anchor:middle;display:inline;fill:#808080;fill-rule:evenodd;stroke:none;stroke-width:1.70126;stroke-linecap:square;paint-order:markers stroke fill"
         d="m 9.4877723,9.4877748 c 1.4257387,-1.4257383 -1.4257383,-4.623157 0,-6.0488953 0.7128707,-0.7128708 2.3115837,-0.7128708 3.0244547,0 1.425738,1.4257383 -1.425738,4.623157 0,6.0488953 1.425738,1.4257382 4.623158,-1.4257385 6.048896,0 0.712871,0.7128702 0.712871,2.3115832 0,3.0244542 -1.425738,1.425738 -4.623158,-1.425738 -6.048896,0 -1.425738,1.425738 1.425738,4.623156 0,6.048894 -0.712871,0.712871 -2.311584,0.712871 -3.0244547,0 -1.425738,-1.425738 1.4257377,-4.623156 0,-6.048894 -1.4257385,-1.425739 -4.6231577,1.425739 -6.0488962,0 -0.7128707,-0.712871 -0.7128707,-2.311584 0,-3.0244542 1.4257385,-1.4257385 4.6231577,1.4257382 6.0488962,0 z"
         id="path5-9"
         aria-label="[+]"
         sodipodi:nodetypes="sssssssssssss"
         inkscape:label="[]"
         transform="translate(16.411485,0.50000377)" />
    </g>
    <g
       id="active-center"
       inkscape:label="#active-center">
      <path
         style="color:#000000;display:inline;opacity:0.3;fill:none;fill-rule:evenodd;stroke-width:0.67383;stroke-linecap:square;stroke-dasharray:none;paint-order:markers stroke fill;stroke:none"
         d="m 2.873243,2.8732424 c -3.83099,3.830991 -3.83099,12.4225246 0,16.2535146 3.83099,3.83099 12.422524,3.83099 16.253514,0 3.83099,-3.83099 3.83099,-12.4225236 0,-16.2535136 -3.83099,-3.83099096 -12.422524,-3.83099096 -16.253514,-10e-7 z"
         id="path3-6"
         sodipodi:nodetypes="ccccc" />
      <path
         style="font-size:21.3333px;font-family:'Fifaks 1.0 dev1';-inkscape-font-specification:'Fifaks 1.0 dev1';text-align:center;text-anchor:middle;display:inline;fill:#ffffff;fill-rule:evenodd;stroke:none;stroke-width:1.70126;stroke-linecap:square;paint-order:markers stroke fill"
         d="m 9.4877723,9.4877748 c 1.4257387,-1.4257383 -1.4257383,-4.623157 0,-6.0488953 0.7128707,-0.7128708 2.3115837,-0.7128708 3.0244547,0 1.425738,1.4257383 -1.425738,4.623157 0,6.0488953 1.425738,1.4257382 4.623158,-1.4257385 6.048896,0 0.712871,0.7128702 0.712871,2.3115832 0,3.0244542 -1.425738,1.425738 -4.623158,-1.425738 -6.048896,0 -1.425738,1.425738 1.425738,4.623156 0,6.048894 -0.712871,0.712871 -2.311584,0.712871 -3.0244547,0 -1.425738,-1.425738 1.4257377,-4.623156 0,-6.048894 -1.4257385,-1.425739 -4.6231577,1.425739 -6.0488962,0 -0.7128707,-0.712871 -0.7128707,-2.311584 0,-3.0244542 1.4257385,-1.4257385 4.6231577,1.4257382 6.0488962,0 z"
         id="path5-9-9"
         aria-label="[+]"
         sodipodi:nodetypes="sssssssssssss"
         inkscape:label="[]" />
    </g>
    <g
       id="hover-center"
       style="display:inline"
       transform="translate(49,-6.703746)"
       inkscape:label="#hover-center">
      <path
         style="color:#000000;display:inline;opacity:0.3;fill:url(#radialGradient5);fill-rule:evenodd;stroke-width:0.67383;stroke-linecap:square;stroke-dasharray:none;paint-order:markers stroke fill;fill-opacity:1"
         d="m -24.126757,9.5769883 c -3.83099,3.8309907 -3.83099,12.4225247 0,16.2535147 3.83099,3.83099 12.422524,3.83099 16.253514,0 3.83099,-3.83099 3.83099,-12.422524 0,-16.2535137 -3.83099,-3.8309906 -12.422524,-3.8309906 -16.253514,-10e-7 z"
         id="path3-6-1"
         sodipodi:nodetypes="ccccc" />
      <path
         style="font-size:21.3333px;font-family:'Fifaks 1.0 dev1';-inkscape-font-specification:'Fifaks 1.0 dev1';text-align:center;text-anchor:middle;display:inline;fill:#ffffff;fill-rule:evenodd;stroke:none;stroke-width:1.70126;stroke-linecap:square;paint-order:markers stroke fill"
         d="m -17.512228,16.191521 c 1.425738,-1.425738 -1.425738,-4.623157 0,-6.048895 0.712871,-0.7128709 2.311584,-0.7128709 3.024455,0 1.425738,1.425738 -1.425738,4.623157 0,6.048895 1.425738,1.425738 4.6231575,-1.425738 6.048896,0 0.7128706,0.712871 0.7128706,2.311583 0,3.024454 -1.4257385,1.425738 -4.623158,-1.425738 -6.048896,0 -1.425738,1.425738 1.425738,4.623156 0,6.048894 -0.712871,0.712871 -2.311584,0.712871 -3.024455,0 -1.425738,-1.425738 1.425738,-4.623156 0,-6.048894 -1.425738,-1.425738 -4.623158,1.425738 -6.048896,0 -0.712871,-0.712871 -0.712871,-2.311583 0,-3.024454 1.425738,-1.425738 4.623158,1.425738 6.048896,0 z"
         id="path5-9-9-2"
         aria-label="[+]"
         sodipodi:nodetypes="sssssssssssss"
         inkscape:label="[]" />
    </g>
    <g
       id="pressed-center"
       style="display:inline"
       inkscape:label="#pressed-center">
      <path
         style="color:#000000;display:inline;opacity:0.3;fill:url(#radialGradient5-7);fill-opacity:1;fill-rule:evenodd;stroke-width:0.67383;stroke-linecap:square;stroke-dasharray:none;paint-order:markers stroke fill"
         d="m 46.873243,2.8732424 c -3.83099,3.8309909 -3.83099,12.4225246 0,16.2535146 3.83099,3.83099 12.422524,3.83099 16.253514,0 3.83099,-3.83099 3.83099,-12.4225237 0,-16.2535136 -3.83099,-3.83099061 -12.422524,-3.83099061 -16.253514,-10e-7 z"
         id="path3-6-1-3"
         sodipodi:nodetypes="ccccc" />
      <path
         style="font-size:21.3333px;font-family:'Fifaks 1.0 dev1';-inkscape-font-specification:'Fifaks 1.0 dev1';text-align:center;text-anchor:middle;display:inline;fill:#ffffff;fill-rule:evenodd;stroke:none;stroke-width:1.70126;stroke-linecap:square;paint-order:markers stroke fill"
         d="m 53.487772,9.4877753 c 1.425738,-1.4257383 -1.425738,-4.6231569 0,-6.0488952 0.712871,-0.7128709 2.311584,-0.7128709 3.024455,0 1.425738,1.4257383 -1.425738,4.6231569 0,6.0488952 1.425738,1.4257387 4.623158,-1.4257385 6.048896,0 0.712871,0.7128707 0.712871,2.3115827 0,3.0244537 -1.425738,1.425738 -4.623158,-1.425738 -6.048896,0 -1.425738,1.425738 1.425738,4.623156 0,6.048894 -0.712871,0.712871 -2.311584,0.712871 -3.024455,0 -1.425738,-1.425738 1.425738,-4.623156 0,-6.048894 -1.425738,-1.425738 -4.623158,1.425738 -6.048896,0 -0.712871,-0.712871 -0.712871,-2.311583 0,-3.0244537 1.425738,-1.4257385 4.623158,1.4257387 6.048896,0 z"
         id="path5-9-9-2-6"
         aria-label="[+]"
         sodipodi:nodetypes="sssssssssssss"
         inkscape:label="[]" />
    </g>
  </g>
</svg>
